<mxfile host="app.diagrams.net" agent="Mozilla/5.0 (Windows NT 10.0; Win64; x64) AppleWebKit/537.36 (KHTML, like Gecko) Chrome/139.0.0.0 Safari/537.36" version="28.1.2">
  <diagram name="IIoT Sensor Flow" id="IIoTSensorFlow">
    <mxGraphModel dx="2377" dy="1252" grid="1" gridSize="10" guides="1" tooltips="1" connect="1" arrows="1" fold="1" page="1" pageScale="1" pageWidth="827" pageHeight="1169" math="0" shadow="0">
      <root>
        <mxCell id="0" />
        <mxCell id="1" parent="0" />
        <mxCell id="start" value="&lt;font style=&quot;font-size: 15px;&quot;&gt;INICIO&lt;/font&gt;" style="ellipse;whiteSpace=wrap;html=1;aspect=fixed;" parent="1" vertex="1">
          <mxGeometry x="300" width="120" height="60" as="geometry" />
        </mxCell>
        <mxCell id="instantiate" value="&lt;font style=&quot;font-size: 15px;&quot;&gt;Instanciar IIoT_Sensor&lt;/font&gt;" style="rounded=1;whiteSpace=wrap;html=1;" parent="1" vertex="1">
          <mxGeometry x="270" y="90" width="180" height="60" as="geometry" />
        </mxCell>
        <mxCell id="check" value="&lt;font style=&quot;font-size: 15px;&quot;&gt;¿Es alcanzable&lt;/font&gt;&lt;div&gt;&lt;font style=&quot;font-size: 15px;&quot;&gt;&amp;nbsp;la DB?&lt;/font&gt;&lt;/div&gt;" style="rhombus;whiteSpace=wrap;html=1;aspect=fixed;" parent="1" vertex="1">
          <mxGeometry x="270" y="180" width="180" height="80" as="geometry" />
        </mxCell>
        <mxCell id="exit" value="&lt;font style=&quot;font-size: 15px;&quot;&gt;FIN&lt;/font&gt;" style="ellipse;whiteSpace=wrap;html=1;aspect=fixed;" parent="1" vertex="1">
          <mxGeometry x="300" y="840" width="120" height="60" as="geometry" />
        </mxCell>
        <mxCell id="credentials" value="&lt;font style=&quot;font-size: 15px;&quot;&gt;Recuperar token&lt;br&gt;&lt;span style=&quot;background-color: transparent; color: light-dark(rgb(0, 0, 0), rgb(255, 255, 255));&quot;&gt;&amp;nbsp;de&amp;nbsp;&lt;/span&gt;ORG ID&lt;/font&gt;" style="rounded=1;whiteSpace=wrap;html=1;" parent="1" vertex="1">
          <mxGeometry x="270" y="290" width="180" height="60" as="geometry" />
        </mxCell>
        <mxCell id="simulate" value="&lt;font style=&quot;font-size: 15px;&quot;&gt;Simular datos&lt;/font&gt;&lt;div&gt;&lt;font style=&quot;font-size: 15px;&quot;&gt;&amp;nbsp;y transmitir&lt;/font&gt;&lt;/div&gt;" style="rounded=1;whiteSpace=wrap;html=1;" parent="1" vertex="1">
          <mxGeometry x="270" y="560" width="180" height="60" as="geometry" />
        </mxCell>
        <mxCell id="wait" value="&lt;font style=&quot;font-size: 15px;&quot;&gt;Intervalo de&amp;nbsp;&lt;/font&gt;&lt;div&gt;&lt;font style=&quot;font-size: 15px;&quot;&gt;espera (1s)&lt;/font&gt;&lt;/div&gt;" style="rounded=1;whiteSpace=wrap;html=1;" parent="1" vertex="1">
          <mxGeometry x="290" y="650" width="140" height="50" as="geometry" />
        </mxCell>
        <mxCell id="interrupt" value="&lt;font style=&quot;font-size: 15px;&quot;&gt;¿Interrumpido?&lt;/font&gt;" style="rhombus;whiteSpace=wrap;html=1;aspect=fixed;" parent="1" vertex="1">
          <mxGeometry x="290" y="730" width="140" height="80" as="geometry" />
        </mxCell>
        <mxCell id="e1" style="endArrow=block;html=1;" parent="1" source="start" target="instantiate" edge="1">
          <mxGeometry relative="1" as="geometry" />
        </mxCell>
        <mxCell id="e2" style="endArrow=block;html=1;" parent="1" source="instantiate" target="check" edge="1">
          <mxGeometry relative="1" as="geometry" />
        </mxCell>
        <mxCell id="e3" style="endArrow=block;html=1;exitX=0;exitY=0.5;exitDx=0;exitDy=0;entryX=0;entryY=0.5;entryDx=0;entryDy=0;" parent="1" source="check" target="exit" edge="1">
          <mxGeometry relative="1" as="geometry">
            <mxPoint x="580" y="470" as="targetPoint" />
            <Array as="points">
              <mxPoint x="220" y="220" />
              <mxPoint x="220" y="870" />
            </Array>
          </mxGeometry>
        </mxCell>
        <mxCell id="e4" style="endArrow=block;html=1;" parent="1" source="check" target="credentials" edge="1">
          <mxGeometry relative="1" as="geometry" />
        </mxCell>
        <mxCell id="e5" style="endArrow=block;html=1;entryX=0.5;entryY=0;entryDx=0;entryDy=0;" parent="1" source="credentials" target="IY0AlqVeSsfuLGFevxIK-1" edge="1">
          <mxGeometry relative="1" as="geometry">
            <mxPoint x="360" y="390" as="targetPoint" />
          </mxGeometry>
        </mxCell>
        <mxCell id="e7" style="endArrow=block;html=1;" parent="1" source="simulate" target="wait" edge="1">
          <mxGeometry relative="1" as="geometry" />
        </mxCell>
        <mxCell id="e8" style="endArrow=block;html=1;" parent="1" source="wait" target="interrupt" edge="1">
          <mxGeometry relative="1" as="geometry" />
        </mxCell>
        <mxCell id="e9" style="endArrow=block;html=1;entryX=0.5;entryY=0;entryDx=0;entryDy=0;exitX=0.5;exitY=1;exitDx=0;exitDy=0;" parent="1" source="interrupt" target="exit" edge="1">
          <mxGeometry relative="1" as="geometry">
            <mxPoint x="491.14109479426656" y="702.8581795327841" as="targetPoint" />
            <Array as="points" />
          </mxGeometry>
        </mxCell>
        <mxCell id="e10" style="endArrow=block;html=1;entryX=1;entryY=0.5;entryDx=0;entryDy=0;" parent="1" source="interrupt" target="simulate" edge="1">
          <mxGeometry relative="1" as="geometry">
            <mxPoint x="510" y="780" as="targetPoint" />
            <Array as="points">
              <mxPoint x="490" y="770" />
              <mxPoint x="490" y="590" />
            </Array>
          </mxGeometry>
        </mxCell>
        <mxCell id="IY0AlqVeSsfuLGFevxIK-3" value="" style="edgeStyle=orthogonalEdgeStyle;rounded=0;orthogonalLoop=1;jettySize=auto;html=1;" parent="1" source="IY0AlqVeSsfuLGFevxIK-1" target="IY0AlqVeSsfuLGFevxIK-2" edge="1">
          <mxGeometry relative="1" as="geometry" />
        </mxCell>
        <mxCell id="IY0AlqVeSsfuLGFevxIK-1" value="&lt;font style=&quot;font-size: 15px;&quot;&gt;Recuperar token&lt;/font&gt;&lt;div&gt;&lt;font style=&quot;font-size: 15px;&quot;&gt;&amp;nbsp;de&amp;nbsp;Bucket ID&lt;/font&gt;&lt;/div&gt;" style="rounded=1;whiteSpace=wrap;html=1;" parent="1" vertex="1">
          <mxGeometry x="270" y="380" width="180" height="60" as="geometry" />
        </mxCell>
        <mxCell id="IY0AlqVeSsfuLGFevxIK-4" value="" style="edgeStyle=orthogonalEdgeStyle;rounded=0;orthogonalLoop=1;jettySize=auto;html=1;" parent="1" source="IY0AlqVeSsfuLGFevxIK-2" target="simulate" edge="1">
          <mxGeometry relative="1" as="geometry" />
        </mxCell>
        <mxCell id="IY0AlqVeSsfuLGFevxIK-2" value="&lt;font style=&quot;font-size: 15px;&quot;&gt;Solicitar token OAuth&lt;/font&gt;" style="rounded=1;whiteSpace=wrap;html=1;" parent="1" vertex="1">
          <mxGeometry x="270" y="470" width="180" height="60" as="geometry" />
        </mxCell>
        <mxCell id="IY0AlqVeSsfuLGFevxIK-5" value="&lt;font style=&quot;font-size: 14px;&quot;&gt;No&lt;/font&gt;" style="text;html=1;align=center;verticalAlign=middle;whiteSpace=wrap;rounded=0;" parent="1" vertex="1">
          <mxGeometry x="230" y="190" width="60" height="30" as="geometry" />
        </mxCell>
        <mxCell id="IY0AlqVeSsfuLGFevxIK-6" value="&lt;font style=&quot;font-size: 14px;&quot;&gt;No&lt;/font&gt;" style="text;html=1;align=center;verticalAlign=middle;whiteSpace=wrap;rounded=0;" parent="1" vertex="1">
          <mxGeometry x="410" y="740" width="60" height="30" as="geometry" />
        </mxCell>
        <mxCell id="IY0AlqVeSsfuLGFevxIK-7" value="&lt;font style=&quot;font-size: 14px;&quot;&gt;Si&lt;/font&gt;" style="text;html=1;align=center;verticalAlign=middle;whiteSpace=wrap;rounded=0;" parent="1" vertex="1">
          <mxGeometry x="310" y="800" width="60" height="30" as="geometry" />
        </mxCell>
        <mxCell id="IY0AlqVeSsfuLGFevxIK-8" value="&lt;font style=&quot;font-size: 14px;&quot;&gt;Si&lt;/font&gt;" style="text;html=1;align=center;verticalAlign=middle;whiteSpace=wrap;rounded=0;" parent="1" vertex="1">
          <mxGeometry x="310" y="250" width="60" height="30" as="geometry" />
        </mxCell>
      </root>
    </mxGraphModel>
  </diagram>
</mxfile>
